<?xml version="1.0" standalone="no"?>
<!DOCTYPE svg PUBLIC "-//W3C//DTD SVG 20010904//EN"
 "http://www.w3.org/TR/2001/REC-SVG-20010904/DTD/svg10.dtd">
<svg version="1.0" xmlns="http://www.w3.org/2000/svg"
 width="260.000000pt" height="260.000000pt" viewBox="0 0 260.000000 260.000000"
 preserveAspectRatio="xMidYMid meet">
<metadata>
Created by potrace 1.11, written by Peter Selinger 2001-2013
</metadata>
<g transform="translate(0.000000,260.000000) scale(0.100000,-0.100000)"
fill="#000000" stroke="none">
<path d="M0 1300 l0 -1300 1300 0 1300 0 0 1300 0 1300 -1300 0 -1300 0 0
-1300z m1634 824 c9 -23 7 -74 -2 -74 -5 0 -7 13 -4 30 3 21 0 32 -12 36 -20
8 -21 24 -2 24 8 0 17 -7 20 -16z m-96 -9 c-11 -11 -58 -15 -58 -5 0 5 14 10
32 10 17 0 29 -2 26 -5z m-101 -22 c-21 -2 -41 -11 -44 -19 -3 -7 -9 -11 -15
-8 -20 13 16 34 56 32 l41 -1 -38 -4z m1027 1 c17 -7 23 -74 7 -74 -7 0 -20
-29 -19 -46 0 -3 -19 -25 -41 -48 -38 -39 -46 -43 -94 -44 -97 -2 -207 -14
-207 -23 0 -5 -16 -9 -35 -9 -19 0 -35 -4 -35 -9 0 -5 -12 -11 -27 -13 -25 -3
-28 -8 -31 -43 -2 -22 -8 -44 -13 -50 -5 -5 -9 -27 -9 -50 0 -23 -4 -45 -9
-50 -5 -6 -12 -45 -16 -89 l-8 -78 34 7 c19 4 38 11 44 16 5 5 21 9 36 9 15 0
30 4 34 9 7 12 128 25 160 17 22 -6 25 -12 25 -51 0 -25 -5 -45 -11 -45 -5 0
-9 -8 -7 -17 5 -35 -11 -43 -88 -43 -43 0 -74 -4 -74 -10 0 -5 -16 -10 -35
-10 -19 0 -35 -4 -35 -9 0 -5 -20 -12 -45 -15 -62 -10 -85 -41 -85 -117 0 -33
-4 -59 -10 -59 -6 0 -10 -28 -10 -64 0 -36 -4 -68 -10 -71 -5 -3 -10 -41 -10
-83 l0 -76 -52 -53 c-29 -29 -58 -53 -65 -53 -7 0 -13 -3 -13 -7 0 -11 -51
-33 -61 -27 -12 7 -11 91 1 99 6 3 10 26 10 50 0 24 4 46 9 49 5 3 12 49 16
101 4 52 11 97 16 101 5 3 9 25 9 49 0 24 5 47 11 51 7 4 2 15 -15 31 -22 20
-26 32 -26 78 0 39 4 55 13 55 7 0 25 6 40 13 25 11 27 17 27 70 0 31 4 57 9
57 5 0 12 36 16 80 4 44 11 83 16 86 16 9 11 84 -5 84 -8 0 -18 -4 -21 -10 -3
-5 -15 -10 -26 -10 -17 0 -19 7 -19 68 0 53 4 71 18 82 30 24 56 37 89 44 17
4 41 18 53 32 13 13 29 24 35 24 7 0 20 9 30 20 10 11 25 20 32 20 8 0 17 -9
20 -20 6 -23 14 -25 46 -8 12 6 30 15 39 19 9 5 46 11 83 15 36 4 68 11 71 15
3 5 18 9 33 9 15 0 31 4 37 9 8 9 38 14 111 19 12 1 28 -1 37 -4z m-864 -14
c0 -6 -7 -25 -16 -42 -9 -18 -20 -43 -25 -57 -4 -14 -22 -60 -39 -101 -93
-218 -130 -313 -126 -318 3 -2 29 15 59 37 29 23 57 41 60 41 5 0 -95 -208
-239 -494 -25 -48 -43 -90 -41 -92 2 -2 27 14 54 36 28 22 54 40 57 40 6 0
-41 -92 -134 -265 -15 -27 -48 -92 -75 -142 -50 -97 -75 -123 -49 -50 60 164
103 292 99 295 -2 2 -19 -10 -37 -27 -31 -29 -48 -38 -48 -26 0 3 19 53 41
112 113 294 160 426 154 432 -5 4 -70 -51 -87 -74 -4 -5 -10 -7 -13 -3 -7 7 0
33 41 148 13 36 57 166 98 289 42 124 80 229 85 234 5 5 42 14 82 22 94 17 99
17 99 5z m30 -44 c0 -3 -4 -8 -10 -11 -5 -3 -10 -1 -10 4 0 6 5 11 10 11 6 0
10 -2 10 -4z m-256 -21 c-4 -8 -8 -15 -10 -15 -2 0 -4 7 -4 15 0 8 4 15 10 15
5 0 7 -7 4 -15z m227 -43 c-6 -2 -11 -11 -12 -20 0 -9 -3 -12 -5 -6 -3 6 1 24
7 40 11 25 13 26 17 9 2 -10 -1 -21 -7 -23z m-241 -1 c0 -6 -4 -13 -10 -16 -5
-3 -10 1 -10 9 0 9 5 16 10 16 6 0 10 -4 10 -9z m-29 -70 c-6 -11 -11 -28 -11
-38 0 -10 -7 -31 -15 -47 -8 -15 -15 -36 -15 -45 0 -13 -2 -13 -9 -2 -6 9 -2
26 10 48 10 18 19 44 19 57 0 12 3 26 8 30 4 4 8 12 8 17 3 20 6 23 10 12 3
-7 1 -21 -5 -32z m239 -16 c-19 -23 -29 -18 -17 9 7 15 16 21 21 16 6 -6 4
-15 -4 -25z m-715 -25 c3 -5 17 -10 31 -10 50 0 121 -58 130 -107 3 -18 10
-36 15 -39 12 -7 11 -104 -1 -104 -5 0 -10 -15 -10 -32 -1 -18 -12 -51 -25
-73 -14 -22 -28 -47 -32 -55 -15 -32 -57 -66 -103 -85 -8 -4 -23 -11 -32 -16
-24 -12 -88 -12 -88 1 0 6 -10 10 -23 10 -26 0 -73 43 -63 58 3 5 28 12 55 14
35 4 56 12 75 31 14 14 26 30 26 35 0 5 7 15 15 22 8 7 15 23 15 35 0 13 5 25
11 27 18 6 17 121 -1 143 -22 27 -125 14 -160 -20 -14 -14 -30 -25 -34 -25
-10 0 -36 -27 -36 -37 0 -5 -16 -24 -35 -43 -18 -18 -34 -36 -33 -39 2 -13
-17 -47 -35 -63 -11 -10 -16 -18 -12 -18 5 0 4 -5 -3 -12 -7 -7 -12 -22 -12
-35 0 -13 -4 -23 -9 -23 -8 0 -23 -32 -25 -57 -1 -6 -5 -15 -9 -19 -4 -4 -7
-22 -7 -41 0 -18 -4 -33 -10 -33 -5 0 -10 -18 -10 -39 0 -22 -4 -43 -10 -46
-13 -8 -13 -272 0 -280 6 -3 10 -17 10 -31 0 -13 5 -24 10 -24 6 0 10 -6 10
-13 0 -25 47 -59 90 -64 31 -4 53 -1 79 12 42 22 119 91 132 120 5 11 13 27
18 35 5 8 16 30 23 48 7 17 16 32 20 32 5 0 8 10 8 23 0 49 38 60 75 22 26
-25 32 -50 15 -60 -5 -3 -10 -17 -10 -31 0 -13 -4 -24 -9 -24 -5 0 -11 -18
-15 -40 -3 -22 -10 -40 -14 -40 -5 0 -14 -16 -22 -35 -7 -19 -26 -47 -42 -62
-15 -15 -28 -33 -28 -40 0 -7 -6 -13 -13 -13 -8 0 -22 -9 -32 -20 -11 -12 -35
-28 -54 -37 -20 -10 -39 -22 -43 -27 -11 -16 -220 -14 -226 2 -2 6 -9 12 -15
12 -14 0 -87 70 -87 83 0 5 -8 17 -19 26 -10 9 -22 35 -26 58 -4 24 -11 45
-16 49 -12 7 -12 281 0 288 4 3 11 37 15 76 4 38 11 70 17 70 5 0 9 11 9 24 0
14 5 28 10 31 6 3 10 13 10 21 0 20 33 94 42 94 5 0 8 5 8 11 0 13 30 78 45
98 5 7 31 36 56 65 25 28 49 59 52 69 4 9 15 20 24 24 10 3 32 18 48 34 49 45
163 99 211 99 24 0 46 5 49 10 3 6 10 10 15 10 5 0 12 -4 15 -10z m682 -32
c-3 -8 -6 -5 -6 6 -1 11 2 17 5 13 3 -3 4 -12 1 -19z m-24 -69 c-8 -17 -17
-28 -20 -25 -7 7 20 65 28 60 4 -2 1 -18 -8 -35z m-254 -75 c-11 -25 -13 -26
-17 -9 -2 10 1 21 7 23 6 2 11 11 12 20 0 10 3 12 5 6 3 -6 -1 -24 -7 -40z
m231 21 c0 -8 -4 -15 -10 -15 -5 0 -7 7 -4 15 4 8 8 15 10 15 2 0 4 -7 4 -15z
m70 -55 c0 -16 -4 -30 -8 -30 -5 0 -9 14 -9 30 0 17 4 30 9 30 4 0 8 -13 8
-30z m-320 -22 c0 -16 -3 -19 -11 -11 -6 6 -8 16 -5 22 11 17 16 13 16 -11z
m297 -40 c-3 -8 -6 -5 -6 6 -1 11 2 17 5 13 3 -3 4 -12 1 -19z m-24 -46 c-3
-12 -9 -22 -14 -22 -12 0 -11 7 3 30 15 24 19 21 11 -8z m-316 -42 c-6 -16
-15 -30 -20 -30 -5 0 -6 6 -3 13 3 6 9 20 12 30 4 9 10 17 14 17 5 0 3 -13 -3
-30z m290 -12 c-3 -8 -6 -5 -6 6 -1 11 2 17 5 13 3 -3 4 -12 1 -19z m-24 -46
c-3 -12 -9 -22 -14 -22 -12 0 -11 7 3 30 15 24 19 21 11 -8z m-299 -47 c-5
-27 -2 -41 11 -55 24 -26 11 -26 -15 0 -21 21 -27 60 -10 60 6 0 10 7 10 15 0
8 2 15 5 15 3 0 3 -16 -1 -35z m273 -7 c-3 -8 -6 -5 -6 6 -1 11 2 17 5 13 3
-3 4 -12 1 -19z m-197 -27 c0 -5 -9 -11 -21 -14 -16 -4 -18 -3 -8 9 13 16 29
19 29 5z m170 -31 c0 -5 -4 -10 -10 -10 -5 0 -10 5 -10 10 0 6 5 10 10 10 6 0
10 -4 10 -10z m-193 -22 c-3 -8 -6 -5 -6 6 -1 11 2 17 5 13 3 -3 4 -12 1 -19z
m170 -20 c-3 -8 -6 -5 -6 6 -1 11 2 17 5 13 3 -3 4 -12 1 -19z m-191 -43 c-10
-32 -12 -33 -20 -15 -6 13 -5 25 4 35 21 25 28 17 16 -20z m164 -15 c0 -5 -4
-10 -10 -10 -5 0 -10 5 -10 10 0 6 5 10 10 10 6 0 10 -4 10 -10z m-184 -39
c-3 -4 -10 -21 -16 -36 -6 -15 -13 -25 -16 -22 -8 8 18 67 29 67 5 0 6 -4 3
-9z m149 -30 c3 -5 1 -12 -5 -16 -5 -3 -10 1 -10 9 0 18 6 21 15 7z m-189 -78
c-11 -11 -19 6 -11 24 8 17 8 17 12 0 3 -10 2 -21 -1 -24z m231 5 c-3 -8 -6
-5 -6 6 -1 11 2 17 5 13 3 -3 4 -12 1 -19z m-243 -33 c-4 -8 -8 -15 -10 -15
-2 0 -4 7 -4 15 0 8 4 15 10 15 5 0 7 -7 4 -15z m218 -28 c-11 -12 -24 -34
-27 -49 -6 -24 -25 -40 -25 -22 0 17 64 116 68 105 2 -7 -5 -22 -16 -34z
m-232 -4 c0 -5 -5 -15 -10 -23 -8 -12 -10 -11 -10 8 0 12 5 22 10 22 6 0 10
-3 10 -7z m-20 -57 c0 -7 -7 -27 -16 -42 -15 -27 -15 -27 -10 -4 3 14 6 33 6
43 0 9 5 17 10 17 6 0 10 -6 10 -14z m186 -54 c-18 -16 -18 -16 -6 6 6 13 14
21 18 18 3 -4 -2 -14 -12 -24z m-174 -41 c29 16 32 5 10 -43 -16 -33 -21 -38
-21 -20 -1 12 4 22 9 22 6 0 10 5 10 10 0 6 -6 10 -14 10 -7 0 -20 8 -27 18
-11 14 -11 15 1 5 9 -9 19 -9 32 -2z m158 -6 c0 -8 -4 -15 -10 -15 -5 0 -10
-6 -10 -14 0 -7 -7 -20 -17 -27 -9 -8 -14 -9 -11 -4 2 6 11 25 18 43 15 34 30
42 30 17z m-64 -121 c-19 -18 -20 -14 -4 23 9 22 12 24 15 11 3 -10 -3 -25
-11 -34z m-110 -1 c-10 -10 -19 5 -10 18 6 11 8 11 12 0 2 -7 1 -15 -2 -18z
m-19 -45 c-3 -7 -5 -2 -5 12 0 14 2 19 5 13 2 -7 2 -19 0 -25z m86 -27 c-10
-22 -21 -41 -25 -41 -5 0 -8 -4 -8 -10 0 -20 -35 -90 -47 -94 -7 -3 10 40 38
95 50 99 77 131 42 50z m-94 2 c0 -5 -6 -24 -13 -42 -9 -26 -15 -31 -21 -21
-5 9 -4 15 3 18 7 2 12 15 12 28 0 13 5 24 10 24 6 0 10 -3 9 -7z m-49 -142
c0 -14 8 -21 28 -24 22 -3 20 -4 -10 -6 -34 -1 -38 2 -38 24 0 14 5 25 10 25
6 0 10 -9 10 -19z"/>
</g>
</svg>
